# xmcd
# 
# Track frame offsets:
#     150
#     25036
#     59476
#     85513
#     105218
#     126554
#     151957
#     180676
#     213465
#     247132
# 
# Disc length: 3539
# 
# Revision: 1
# Processed by: cddbd v1.5.2PL0 Copyright (c) Steve Scherf et al.
# Submitted via: BonkEnc v1.0.8
# 
DISCID=810dd10a
DTITLE=Various Artist - Copenhagen Airport Departure
DYEAR=2008
DGENRE=nordic
TTITLE0=Physics - Viva L'Amore
TTITLE1=Dalminjo - I'll Wait
TTITLE2=Brice Bertran - I Wish (Physics Remix)
TTITLE3=Physics - When It Breaks
TTITLE4=Dalminjo - Everytime You Go
TTITLE5=Beaka - Soul Exp. (Soul Expedition Lounge Mix)
TTITLE6=Physics - Estrelas(Physics Que Puru Mix)
TTITLE7=Dalminjo - Come Here
TTITLE8=Hibiki Connection - Cha-Ka-Too (Sunset Mix)
TTITLE9=Jet Set Inc - Don't Stop The Dance
EXTD=
EXTT0=
EXTT1=
EXTT2=
EXTT3=
EXTT4=
EXTT5=
EXTT6=
EXTT7=
EXTT8=
EXTT9=
PLAYORDER=
